<svg width="0" height="0" class="hidden">
  <symbol fill="none" xmlns="http://www.w3.org/2000/svg" viewBox="0 0 30 30" id="add">
    <path d="M17.5 16.25H16.25V15C16.25 14.6685 16.1183 14.3505 15.8839 14.1161C15.6495 13.8817 15.3315 13.75 15 13.75C14.6685 13.75 14.3505 13.8817 14.1161 14.1161C13.8817 14.3505 13.75 14.6685 13.75 15V16.25H12.5C12.1685 16.25 11.8505 16.3817 11.6161 16.6161C11.3817 16.8505 11.25 17.1685 11.25 17.5C11.25 17.8315 11.3817 18.1495 11.6161 18.3839C11.8505 18.6183 12.1685 18.75 12.5 18.75H13.75V20C13.75 20.3315 13.8817 20.6495 14.1161 20.8839C14.3505 21.1183 14.6685 21.25 15 21.25C15.3315 21.25 15.6495 21.1183 15.8839 20.8839C16.1183 20.6495 16.25 20.3315 16.25 20V18.75H17.5C17.8315 18.75 18.1495 18.6183 18.3839 18.3839C18.6183 18.1495 18.75 17.8315 18.75 17.5C18.75 17.1685 18.6183 16.8505 18.3839 16.6161C18.1495 16.3817 17.8315 16.25 17.5 16.25Z" fill="white" fill-opacity="0.38"></path>
    <path d="M24.375 8.81249H15.625L12.3375 4.83749C12.2212 4.6941 12.0745 4.57825 11.9081 4.49829C11.7417 4.41832 11.5596 4.37621 11.375 4.37499H5.625C4.80826 4.36496 4.02083 4.67898 3.43512 5.24829C2.84942 5.8176 2.51317 6.59579 2.5 7.41249V22.5875C2.51317 23.4042 2.84942 24.1824 3.43512 24.7517C4.02083 25.321 4.80826 25.635 5.625 25.625H24.375C25.1917 25.635 25.9792 25.321 26.5649 24.7517C27.1506 24.1824 27.4868 23.4042 27.5 22.5875V11.85C27.4868 11.0333 27.1506 10.2551 26.5649 9.68579C25.9792 9.11648 25.1917 8.80246 24.375 8.81249V8.81249ZM25 22.5625C24.9953 22.6392 24.9753 22.7142 24.9411 22.783C24.9069 22.8518 24.8593 22.9131 24.801 22.9632C24.7427 23.0133 24.675 23.0512 24.6019 23.0747C24.5287 23.0982 24.4515 23.1068 24.375 23.1H5.625C5.54846 23.1068 5.47132 23.0982 5.39815 23.0747C5.32498 23.0512 5.25726 23.0133 5.199 22.9632C5.14073 22.9131 5.0931 22.8518 5.05892 22.783C5.02474 22.7142 5.00471 22.6392 5 22.5625V7.41249C5.00471 7.33578 5.02474 7.2608 5.05892 7.19197C5.0931 7.12315 5.14073 7.06187 5.199 7.01176C5.25726 6.96165 5.32498 6.92373 5.39815 6.90024C5.47132 6.87675 5.54846 6.86816 5.625 6.87499H10.7875L14.0375 10.85C14.1538 10.9934 14.3005 11.1092 14.4669 11.1892C14.6333 11.2692 14.8154 11.3113 15 11.3125H24.375C24.4515 11.3057 24.5287 11.3142 24.6019 11.3377C24.675 11.3612 24.7427 11.3992 24.801 11.4493C24.8593 11.4994 24.9069 11.5606 24.9411 11.6295C24.9753 11.6983 24.9953 11.7733 25 11.85V22.5625Z" fill="white" fill-opacity="0.38"></path>
  </symbol>
  <symbol fill="none" xmlns="http://www.w3.org/2000/svg" viewBox="0 0 12 6" id="drop">
    <path d="M1.5 0.75L6 5.25L10.5 0.75" stroke="white" stroke-opacity="0.55" stroke-width="1.5" stroke-linecap="round" stroke-linejoin="round"></path>
  </symbol>
  <symbol fill="none" xmlns="http://www.w3.org/2000/svg" viewBox="0 0 34 34" id="fb">
    <path d="M18.9791 29.7458V18.1347H22.8962L23.4784 13.5887H18.9791V10.693C18.9791 9.38116 19.3446 8.483 21.2274 8.483H23.613V4.42991C22.4523 4.30552 21.2855 4.24545 20.1181 4.25C16.6558 4.25 14.2786 6.36366 14.2786 10.2439V13.5802H10.387V18.1262H14.2871V29.7458H18.9791Z" fill="white" fill-opacity="0.78"></path>
  </symbol>
  <symbol fill="none" xmlns="http://www.w3.org/2000/svg" viewBox="0 0 64 64" id="figma">
    <g opacity="0.78">
      <path d="M42.6667 42.6667C48.5577 42.6667 53.3333 37.8911 53.3333 32C53.3333 26.109 48.5577 21.3334 42.6667 21.3334C36.7756 21.3334 32 26.109 32 32C32 37.8911 36.7756 42.6667 42.6667 42.6667Z" fill="#19BCFE"></path>
      <path fill-rule="evenodd" clip-rule="evenodd" d="M21.3334 64C24.1624 64 26.8755 62.8761 28.8759 60.8758C30.8763 58.8754 32.0001 56.1623 32.0001 53.3333V42.6666H21.3334C18.5044 42.6666 15.7913 43.7904 13.7909 45.7908C11.7906 47.7912 10.6667 50.5043 10.6667 53.3333C10.6667 56.1623 11.7906 58.8754 13.7909 60.8758C15.7913 62.8761 18.5044 64 21.3334 64Z" fill="#09CF83"></path>
      <path fill-rule="evenodd" clip-rule="evenodd" d="M21.3334 42.6667H32.0001V21.3334H21.3334C18.5044 21.3334 15.7913 22.4572 13.7909 24.4576C11.7906 26.458 10.6667 29.1711 10.6667 32C10.6667 34.829 11.7906 37.5421 13.7909 39.5425C15.7913 41.5429 18.5044 42.6667 21.3334 42.6667Z" fill="#A259FF"></path>
      <path fill-rule="evenodd" clip-rule="evenodd" d="M21.3334 21.3333H32.0001V0H21.3334C18.5044 0 15.7913 1.12381 13.7909 3.12419C11.7906 5.12458 10.6667 7.83769 10.6667 10.6667C10.6667 13.4956 11.7906 16.2088 13.7909 18.2091C15.7913 20.2095 18.5044 21.3333 21.3334 21.3333Z" fill="#F24E1E"></path>
      <path fill-rule="evenodd" clip-rule="evenodd" d="M42.6667 21.3333H32V0H42.6667C45.4956 0 48.2087 1.12381 50.2091 3.12419C52.2095 5.12458 53.3333 7.83769 53.3333 10.6667C53.3333 13.4956 52.2095 16.2088 50.2091 18.2091C48.2087 20.2095 45.4956 21.3333 42.6667 21.3333Z" fill="#FF7262"></path>
    </g>
  </symbol>
  <symbol fill="none" xmlns="http://www.w3.org/2000/svg" viewBox="0 0 589 568" id="Illustration">
    <path opacity="0.4" d="M335.43 255.344C328.204 251.178 323.019 251.093 319.874 255.004C316.644 258.915 315.114 265.546 315.114 274.812V324.969C315.114 334.49 314.264 342.396 312.478 348.687C310.693 355.233 307.718 359.824 303.638 362.544C299.643 365.35 294.202 366.03 287.317 364.755C280.602 363.564 272.186 359.994 262.155 354.213L257.395 351.408V311.877L263.43 315.363C270.656 319.528 275.416 320.038 277.796 317.063C280.346 314.087 281.622 307.967 281.622 298.7V254.494C281.622 242.932 282.727 233.836 285.022 227.205C287.232 220.489 291.737 216.238 298.453 214.368C291.737 204.762 287.232 195.24 285.022 185.974C282.812 176.708 281.707 166.336 281.707 154.775V110.568C281.707 101.302 280.432 93.651 277.881 87.7851C275.501 82.0043 270.656 76.9886 263.515 72.823L257.48 69.3375V29.8069L262.24 32.6123C272.271 38.3931 280.687 44.599 287.402 51.1449C294.287 57.7759 299.728 64.7469 303.723 72.2279C307.888 79.709 310.863 87.7001 312.563 96.2864C314.349 104.618 315.199 113.544 315.199 123.065V173.222C315.199 182.489 316.814 190.99 319.959 198.556C323.189 206.122 328.374 212.073 335.515 216.153L335.43 255.344Z" fill="url(#paint0_linear_1_421)"></path>
    <path opacity="0.4" d="M153.349 110.058C160.574 114.224 165.759 114.309 168.905 110.398C172.135 106.488 173.665 99.8568 173.665 90.5905V40.4334C173.665 30.912 174.515 23.0059 176.3 16.715C178.085 10.169 180.975 5.57839 184.971 2.77299C189.136 0.0526013 194.576 -0.627496 201.291 0.562674C208.177 1.83786 216.677 5.40837 226.708 11.2742L231.468 14.0796V53.6102L225.433 50.1247C218.207 45.9591 213.362 45.3641 210.812 48.3395C208.432 51.3999 207.242 57.5208 207.242 66.8721V111.078C207.242 122.555 206.137 131.736 203.842 138.367C201.631 145.083 197.126 149.334 190.411 151.204C197.126 160.811 201.631 170.332 203.842 179.598C206.052 188.865 207.157 199.236 207.157 210.798V255.004C207.157 264.27 208.347 271.836 210.727 277.702C213.277 283.568 218.122 288.669 225.348 292.749L231.383 296.235V335.766L226.623 332.96C216.592 327.179 208.092 320.888 201.206 314.342C194.491 307.797 189.051 300.826 184.885 293.259C180.89 285.863 178 277.872 176.3 269.371C174.515 261.04 173.665 252.114 173.665 242.592V192.435C173.665 183.169 172.05 174.668 168.905 167.101C165.674 159.535 160.489 153.585 153.349 149.504V110.058Z" fill="url(#paint1_linear_1_421)"></path>
    <path opacity="0.15" d="M359.996 10.9343L539.442 114.564L539.357 544.81L359.911 441.266L359.996 10.9343Z" fill="url(#paint2_linear_1_421)"></path>
    <path d="M326.249 67.2971L469.058 149.674V189.205L326.249 106.828V67.2971Z" fill="#587298"></path>
    <path opacity="0.2" d="M383.373 250.329L518.701 328.455V448.067L383.373 369.941V250.329Z" fill="url(#paint3_linear_1_421)"></path>
    <path opacity="0.15" d="M382.012 158.6L519.38 237.916V251.433L382.012 172.117V158.6Z" fill="white"></path>
    <path opacity="0.15" d="M382.012 185.804L500.764 254.324V267.841L382.012 199.321V185.804Z" fill="white"></path>
    <path opacity="0.15" d="M382.012 212.668L482.828 270.816V284.333L382.012 226.185V212.668Z" fill="white"></path>
    <path opacity="0.2" d="M359.996 10.9343L539.442 114.564V172.202L359.911 68.6576L359.996 10.9343Z" fill="url(#paint4_linear_1_421)"></path>
    <path opacity="0.2" d="M404.794 66.0221C404.794 74.7784 399.693 78.859 393.403 75.2034C387.113 71.5479 382.012 61.6015 382.012 52.8453C382.012 44.089 387.113 40.0084 393.403 43.6639C399.693 47.3195 404.794 57.3509 404.794 66.0221Z" fill="white"></path>
    <path opacity="0.15" d="M36.6372 142.703L589 461.499L588.915 892L36.5522 573.205L36.6372 142.703Z" fill="url(#paint5_linear_1_421)"></path>
    <path d="M0 248.798L142.723 331.175V370.705L0 288.414V248.798Z" fill="#EA8C4F"></path>
    <path opacity="0.15" d="M73.8689 357.444L390.768 540.39V553.907L73.8689 370.961V357.444Z" fill="white"></path>
    <path opacity="0.15" d="M73.8689 384.648L347.245 542.43V555.947L73.8689 398.165V384.648Z" fill="white"></path>
    <path opacity="0.15" d="M73.8689 411.596L306.528 545.915V559.432L73.8689 425.113V411.596Z" fill="white"></path>
    <path opacity="0.2" d="M22.0158 425.029L253.995 558.923V678.535L22.0158 544.556V425.029Z" fill="url(#paint6_linear_1_421)"></path>
    <path opacity="0.15" d="M45.3922 469.15L229.683 575.5V589.017L45.3922 482.667V469.15Z" fill="white"></path>
    <path opacity="0.15" d="M45.3922 496.354L192.961 581.536V595.053L45.3922 509.785V496.354Z" fill="white"></path>
    <path opacity="0.2" d="M36.6368 142.703L588.235 461.159V519.477L36.6368 201.106V142.703Z" fill="url(#paint7_linear_1_421)"></path>
    <path opacity="0.2" d="M96.7358 206.547C96.7358 215.304 91.6355 219.384 85.3451 215.729C79.0547 212.073 73.9544 202.127 73.9544 193.37C73.9544 184.614 79.0547 180.534 85.3451 184.189C91.6355 187.845 96.7358 197.876 96.7358 206.547Z" fill="white"></path>
    <defs>
      <linearGradient id="paint0_linear_1_421" x1="384.36" y1="17.8759" x2="245.12" y2="259.239" gradientUnits="userSpaceOnUse">
        <stop stop-color="#424C57"></stop>
        <stop offset="0.903" stop-color="white" stop-opacity="0"></stop>
      </linearGradient>
      <linearGradient id="paint1_linear_1_421" x1="303.984" y1="1.51234" x2="164.727" y2="242.845" gradientUnits="userSpaceOnUse">
        <stop stop-color="#414B56"></stop>
        <stop offset="0.903" stop-color="white" stop-opacity="0"></stop>
      </linearGradient>
      <linearGradient id="paint2_linear_1_421" x1="542.816" y1="116.519" x2="371.208" y2="413.807" gradientUnits="userSpaceOnUse">
        <stop stop-color="white"></stop>
        <stop offset="1" stop-color="white" stop-opacity="0"></stop>
      </linearGradient>
      <linearGradient id="paint3_linear_1_421" x1="476.95" y1="304.285" x2="429.254" y2="386.909" gradientUnits="userSpaceOnUse">
        <stop stop-color="white"></stop>
        <stop offset="1" stop-color="white" stop-opacity="0"></stop>
      </linearGradient>
      <linearGradient id="paint4_linear_1_421" x1="421.521" y1="11.8282" x2="476.243" y2="166.739" gradientUnits="userSpaceOnUse">
        <stop stop-color="#424C58"></stop>
        <stop offset="1" stop-color="white" stop-opacity="0"></stop>
      </linearGradient>
      <linearGradient id="paint5_linear_1_421" x1="405.97" y1="355.856" x2="315.072" y2="513.362" gradientUnits="userSpaceOnUse">
        <stop stop-color="white"></stop>
        <stop offset="1" stop-color="white" stop-opacity="0"></stop>
      </linearGradient>
      <linearGradient id="paint6_linear_1_421" x1="163.887" y1="506.882" x2="116.192" y2="589.507" gradientUnits="userSpaceOnUse">
        <stop stop-color="#434D58"></stop>
        <stop offset="1" stop-color="white" stop-opacity="0"></stop>
      </linearGradient>
      <linearGradient id="paint7_linear_1_421" x1="173.501" y1="95.7139" x2="382.973" y2="450.519" gradientUnits="userSpaceOnUse">
        <stop stop-color="#546F94"></stop>
        <stop offset="1" stop-color="white" stop-opacity="0"></stop>
      </linearGradient>
    </defs>
  </symbol>
  <symbol fill="none" xmlns="http://www.w3.org/2000/svg" viewBox="0 0 36 36" id="insta">
    <path d="M17.9985 11.0654C16.159 11.0654 14.3948 11.7962 13.094 13.0969C11.7933 14.3977 11.0625 16.1619 11.0625 18.0014C11.0625 19.841 11.7933 21.6052 13.094 22.9059C14.3948 24.2067 16.159 24.9374 17.9985 24.9374C19.838 24.9374 21.6022 24.2067 22.903 22.9059C24.2037 21.6052 24.9345 19.841 24.9345 18.0014C24.9345 16.1619 24.2037 14.3977 22.903 13.0969C21.6022 11.7962 19.838 11.0654 17.9985 11.0654ZM17.9985 22.5059C16.8034 22.5059 15.6573 22.0312 14.8123 21.1862C13.9672 20.3411 13.4925 19.195 13.4925 17.9999C13.4925 16.8049 13.9672 15.6587 14.8123 14.8137C15.6573 13.9687 16.8034 13.4939 17.9985 13.4939C19.1936 13.4939 20.3397 13.9687 21.1847 14.8137C22.0298 15.6587 22.5045 16.8049 22.5045 17.9999C22.5045 19.195 22.0298 20.3411 21.1847 21.1862C20.3397 22.0312 19.1936 22.5059 17.9985 22.5059Z" fill="white" fill-opacity="0.78"></path>
    <path d="M25.209 12.4275C26.1021 12.4275 26.826 11.7035 26.826 10.8105C26.826 9.91744 26.1021 9.19348 25.209 9.19348C24.316 9.19348 23.592 9.91744 23.592 10.8105C23.592 11.7035 24.316 12.4275 25.209 12.4275Z" fill="white" fill-opacity="0.78"></path>
    <path d="M30.7995 9.16645C30.4522 8.26972 29.9216 7.45537 29.2415 6.77553C28.5614 6.0957 27.7468 5.56535 26.85 5.21845C25.8005 4.82448 24.6918 4.61146 23.571 4.58845C22.1265 4.52545 21.669 4.50745 18.006 4.50745C14.343 4.50745 13.8735 4.50745 12.441 4.58845C11.3211 4.61028 10.2131 4.82335 9.16499 5.21845C8.26789 5.56495 7.45314 6.09515 6.77299 6.77504C6.09285 7.45493 5.56233 8.26948 5.21549 9.16645C4.82145 10.2159 4.60891 11.3247 4.58699 12.4454C4.52249 13.8884 4.50299 14.3459 4.50299 18.0104C4.50299 21.6734 4.50299 22.1399 4.58699 23.5754C4.60949 24.6974 4.82099 25.8044 5.21549 26.8559C5.56331 27.7526 6.09433 28.5668 6.77464 29.2466C7.45495 29.9264 8.26959 30.4568 9.16649 30.8039C10.2126 31.2137 11.321 31.442 12.444 31.4789C13.8885 31.5419 14.346 31.5614 18.009 31.5614C21.672 31.5614 22.1415 31.5614 23.574 31.4789C24.6946 31.4562 25.8033 31.2437 26.853 30.8505C27.7496 30.5027 28.5639 29.9719 29.2439 29.2919C29.924 28.6119 30.4548 27.7976 30.8025 26.9009C31.197 25.851 31.4085 24.7439 31.431 23.622C31.4955 22.1789 31.515 21.7214 31.515 18.0569C31.515 14.3924 31.515 13.9274 31.431 12.4919C31.4135 11.3554 31.1999 10.2303 30.7995 9.16645ZM28.9725 23.4644C28.9628 24.3289 28.805 25.1853 28.506 25.9964C28.2807 26.5798 27.9359 27.1094 27.4936 27.5515C27.0513 27.9935 26.5214 28.338 25.938 28.5629C25.1358 28.8606 24.2885 29.0184 23.433 29.0294C22.008 29.0954 21.606 29.1119 17.952 29.1119C14.295 29.1119 13.9215 29.1119 12.4695 29.0294C11.6144 29.019 10.7675 28.8612 9.96599 28.5629C9.38052 28.3394 8.84849 27.9955 8.40433 27.5534C7.96016 27.1113 7.61374 26.5809 7.38749 25.9964C7.09266 25.194 6.93496 24.3477 6.92099 23.4929C6.85649 22.0679 6.84149 21.6659 6.84149 18.0119C6.84149 14.3564 6.84149 13.9829 6.92099 12.5294C6.93069 11.6655 7.08847 10.8096 7.38749 9.99895C7.84499 8.81545 8.78249 7.88395 9.96599 7.43095C10.7679 7.13416 11.6145 6.97639 12.4695 6.96445C13.896 6.89995 14.2965 6.88195 17.952 6.88195C21.6075 6.88195 21.9825 6.88195 23.433 6.96445C24.2886 6.97474 25.136 7.13255 25.938 7.43095C26.5214 7.65636 27.0512 8.00125 27.4934 8.44349C27.9357 8.88573 28.2806 9.41555 28.506 9.99895C28.8008 10.8014 28.9585 11.6477 28.9725 12.5024C29.037 13.9289 29.0535 14.3294 29.0535 17.9849C29.0535 21.6389 29.0535 22.0319 28.989 23.466H28.9725V23.4644Z" fill="white" fill-opacity="0.78"></path>
  </symbol>
  <symbol fill="none" xmlns="http://www.w3.org/2000/svg" viewBox="0 0 26 22" id="like">
    <path d="M18.8334 0.25C16.3834 0.25 14.225 1.475 13 3.4C11.775 1.475 9.61669 0.25 7.16669 0.25C3.31669 0.25 0.166687 3.4 0.166687 7.25C0.166687 14.1917 13 21.25 13 21.25C13 21.25 25.8334 14.25 25.8334 7.25C25.8334 3.4 22.6834 0.25 18.8334 0.25Z" fill="currentColor" ></path>
  </symbol>
  <symbol fill="none" xmlns="http://www.w3.org/2000/svg" viewBox="0 0 38 38" id="logo">
    <rect width="38" height="38" rx="8" fill="#currentColor"></rect>
    <path fill-rule="evenodd" clip-rule="evenodd" d="M19.9645 12.4359C19.632 12.4359 19.3089 12.4769 19 12.5542C19.1988 10.7606 19.9148 9.12398 20.9963 7.79492C25.2971 8.30464 28.6332 11.9646 28.6332 16.4029V22.7294C28.4605 22.7391 28.2864 22.744 28.1112 22.744C24.6706 22.744 21.6709 20.8483 20.1028 18.0423H23.9315V16.4029C23.9315 14.212 22.1554 12.4359 19.9645 12.4359Z" fill="white"></path>
    <path fill-rule="evenodd" clip-rule="evenodd" d="M9.25641 16.9507C9.25641 11.625 13.5738 7.30762 18.8995 7.30762C21.5623 7.30762 23.9731 8.38695 25.7181 10.132C24.1095 8.52336 21.9351 7.48044 19.519 7.32724C17.894 9.12575 16.9044 11.5095 16.9044 14.1243C16.9044 14.3194 16.9099 14.5131 16.9208 14.7055C16.299 15.2538 15.9068 16.0565 15.9068 16.9507V17.6157H21.8921L17.5214 17.6158C18.9445 21.4968 22.6719 24.2661 27.0462 24.2661C27.5546 24.2661 28.0542 24.2287 28.5425 24.1565V28.2563H21.8921V24.2661H15.9068V28.2563H9.25641V20.9409V16.9507Z" fill="white"></path>
  </symbol>
  <symbol fill="none" xmlns="http://www.w3.org/2000/svg" viewBox="0 0 25 24" id="search">
    <path d="M11 19C15.4183 19 19 15.4183 19 11C19 6.58172 15.4183 3 11 3C6.58172 3 3 6.58172 3 11C3 15.4183 6.58172 19 11 19Z" stroke="white" stroke-opacity="0.38" stroke-width="2" stroke-linecap="round" stroke-linejoin="round"></path>
    <path d="M21 20.9999L16.65 16.6499" stroke="white" stroke-opacity="0.38" stroke-width="2" stroke-linecap="round" stroke-linejoin="round"></path>
  </symbol>
  <symbol fill="none" xmlns="http://www.w3.org/2000/svg" viewBox="0 0 64 57" id="sketch">
    <g clip-path="url(#clip0_1_327)">
      <path d="M32 0L13.9637 1.87248L0 20.2781L32 56.867L64 20.2779L50.0365 1.87248L32 0Z" fill="#FDB300"></path>
      <path d="M0 20.2782L32 56.8671L12.9615 20.2782H0Z" fill="#EB6C00"></path>
      <path d="M51.0382 20.2782L32 56.8671L64 20.2782H51.0382Z" fill="#EB6C00"></path>
      <path d="M12.9617 20.2782L32.0002 56.8671L51.0387 20.2782H12.9617Z" fill="#FDAD00"></path>
      <path d="M13.9636 1.87248L12.9611 20.2781L31.9998 0L13.9636 1.87248Z" fill="#FDD231"></path>
      <path d="M51.0382 20.2781L50.0363 1.87248L32 0L51.0382 20.2781Z" fill="#FDD231"></path>
      <path d="M51.0383 20.2781H63.9998L50.0363 1.87244L51.0383 20.2781Z" fill="#FDAD00"></path>
      <path d="M0 20.2781H12.9615L13.9637 1.87244L0 20.2781Z" fill="#FDAD00"></path>
      <path d="M32.0002 0L12.9617 20.2779H51.0387L32.0002 0Z" fill="#FEEEB7"></path>
    </g>
    <defs>
      <clipPath id="clip0_1_327">
        <rect width="64" height="56.95" fill="white"></rect>
      </clipPath>
    </defs>
  </symbol>
  <symbol fill="none" xmlns="http://www.w3.org/2000/svg" viewBox="0 0 36 36" id="twitter">
    <path d="M29.4495 11.9956C29.469 12.2581 29.469 12.5191 29.469 12.7801C29.469 20.7676 23.3895 29.9716 12.279 29.9716C8.856 29.9716 5.676 28.9801 3 27.2581C3.486 27.3136 3.954 27.3331 4.4595 27.3331C7.17899 27.3396 9.82147 26.4303 11.961 24.7516C10.7001 24.7287 9.47786 24.3128 8.46486 23.5617C7.45185 22.8106 6.69868 21.7619 6.3105 20.5621C6.684 20.6176 7.059 20.6551 7.452 20.6551C7.9935 20.6551 8.538 20.5801 9.0435 20.4496C7.67514 20.1733 6.44471 19.4316 5.56143 18.3506C4.67815 17.2696 4.19654 15.916 4.1985 14.5201V14.4451C5.004 14.8936 5.9385 15.1741 6.9285 15.2116C6.09913 14.6604 5.41908 13.9126 4.94901 13.0348C4.47894 12.1569 4.23347 11.1763 4.2345 10.1806C4.2345 9.05857 4.533 8.02957 5.0565 7.13257C6.57471 9.0001 8.46825 10.5279 10.6145 11.6171C12.7608 12.7062 15.1118 13.3324 17.5155 13.4551C17.4225 13.0051 17.3655 12.5386 17.3655 12.0706C17.3651 11.277 17.5211 10.4912 17.8246 9.75793C18.1281 9.0247 18.5732 8.35848 19.1343 7.79735C19.6954 7.23622 20.3616 6.79118 21.0949 6.48768C21.8281 6.18418 22.6139 6.02817 23.4075 6.02857C25.1475 6.02857 26.718 6.75756 27.822 7.93657C29.1747 7.67499 30.4718 7.1812 31.656 6.47706C31.2051 7.87329 30.2606 9.05722 28.9995 9.80707C30.1992 9.67023 31.3717 9.35474 32.478 8.87107C31.6517 10.0757 30.6278 11.1321 29.4495 11.9956Z" fill="white" fill-opacity="0.78"></path>
  </symbol>
  <symbol fill="none" xmlns="http://www.w3.org/2000/svg" viewBox="0 0 65 63" id="vsc">
    <g opacity="0.78">
      <mask id="mask0_1_390" maskUnits="userSpaceOnUse" x="0" y="0" width="65" height="63">
        <path d="M45.9135 62.497C46.4286 62.6927 46.9797 62.7831 47.5322 62.7624C48.0848 62.7417 48.6271 62.6104 49.1254 62.3767L62.4557 56.1267C63.1422 55.8046 63.7215 55.3002 64.1269 54.6715C64.5323 54.0429 64.7473 53.3154 64.7472 52.573V10.1931C64.7473 9.45065 64.5323 8.72327 64.1269 8.09463C63.7215 7.46599 63.1422 6.96164 62.4557 6.63958L49.1256 0.389333C48.3724 0.0361606 47.5251 -0.0801242 46.7011 0.0565747C45.877 0.193274 45.117 0.576195 44.5261 1.15234L19.0068 23.8383L7.89074 15.6165C7.38932 15.2456 6.77047 15.0575 6.14158 15.0847C5.51268 15.112 4.91342 15.3529 4.44777 15.7657L0.882669 18.9258C-0.292917 19.9677 -0.294186 21.7698 0.879622 22.8133L10.5197 31.383L0.879622 39.9525C-0.294186 40.9963 -0.292917 42.7981 0.882669 43.8402L4.44777 47.0001C4.91339 47.4129 5.51264 47.6539 6.14153 47.6812C6.77043 47.7085 7.38929 47.5204 7.89074 47.1495L19.0068 38.9275L44.5261 61.6135C44.9207 61.9985 45.3931 62.2994 45.9135 62.497ZM48.5703 17.0609L29.2069 31.383L48.5703 45.7049V17.0609Z" fill="white"></path>
      </mask>
      <g mask="url(#mask0_1_390)">
        <path d="M62.4953 6.64928L49.1545 0.390373C48.4011 0.036915 47.5535 -0.0796175 46.7291 0.0569015C45.9048 0.193421 45.1443 0.576241 44.553 1.15239L0.880099 39.9525C-0.294472 40.9963 -0.292948 42.7982 0.883145 43.8403L4.45053 47.0002C4.91657 47.4131 5.51619 47.654 6.14545 47.6813C6.77471 47.7086 7.39394 47.5205 7.89578 47.1496L60.4879 8.27301C62.2523 6.96893 64.7865 8.19508 64.7865 10.353V10.202C64.7865 9.45976 64.5715 8.73254 64.1661 8.10404C63.7608 7.47554 63.1817 6.97129 62.4953 6.64928Z" fill="#0065A9"></path>
        <path d="M62.4953 56.1159L49.1545 62.3749C48.4011 62.7282 47.5535 62.8447 46.7292 62.7082C45.9048 62.5717 45.1443 62.1889 44.553 61.6128L0.880099 22.8127C-0.294472 21.7691 -0.292948 19.967 0.883145 18.9252L4.45053 15.7651C4.9166 15.3522 5.51624 15.1113 6.1455 15.084C6.77476 15.0568 7.39397 15.2449 7.89578 15.6159L60.4879 54.4922C62.2523 55.7963 64.7865 54.5701 64.7865 52.412V52.5632C64.7865 53.3055 64.5714 54.0327 64.1661 54.6612C63.7608 55.2897 63.1816 55.7939 62.4953 56.1159Z" fill="#007ACC"></path>
        <path d="M49.1126 62.3798C48.359 62.733 47.5114 62.8493 46.6869 62.7127C45.8625 62.5761 45.102 62.1932 44.5106 61.617C46.0038 63.0718 48.5573 62.0413 48.5573 59.9834V2.78904C48.5573 0.731112 46.0038 -0.299339 44.5106 1.15566C45.102 0.57947 45.8624 0.196552 46.6869 0.059863C47.5113 -0.0768265 48.359 0.039466 49.1126 0.392659L62.4511 6.64291C63.1379 6.96474 63.7175 7.46901 64.1231 8.09767C64.5287 8.72634 64.7439 9.45383 64.7439 10.1964V52.5765C64.7439 54.0919 63.8527 55.4734 62.4511 56.13L49.1126 62.38V62.3798Z" fill="#1F9CF0"></path>
        <path d="M45.9135 62.4964C46.4287 62.6921 46.9797 62.7824 47.5322 62.7618C48.0848 62.7411 48.6271 62.6098 49.1254 62.3762L62.4554 56.1259C63.142 55.8039 63.7214 55.2996 64.1268 54.6709C64.5322 54.0423 64.7473 53.3149 64.7472 52.5724V10.1925C64.7473 9.45009 64.5323 8.72271 64.1269 8.09407C63.7215 7.46543 63.1422 6.96107 62.4557 6.63902L49.1251 0.388521C48.3719 0.0354046 47.5247 -0.0808494 46.7007 0.0558482C45.8767 0.192546 45.1167 0.575435 44.5259 1.15152L19.0068 23.8378L7.89074 15.6159C7.38932 15.2451 6.77047 15.0569 6.14158 15.0842C5.51268 15.1114 4.91342 15.3523 4.44777 15.7651L0.882669 18.9253C-0.292917 19.9671 -0.294186 21.7692 0.879622 22.8128L10.5197 31.3825L0.879622 39.9519C-0.294186 40.9957 -0.292917 42.7976 0.882669 43.8397L4.44777 46.9995C4.91339 47.4124 5.51264 47.6533 6.14153 47.6806C6.77043 47.7079 7.38929 47.5198 7.89074 47.149L19.0068 38.9269L44.5259 61.6129C44.9205 61.998 45.393 62.2989 45.9135 62.4964ZM48.5703 17.0601L29.2069 31.3825L48.5703 45.7044V17.0603V17.0601Z" fill="url(#paint0_linear_1_390)" fill-opacity="0.25"></path>
      </g>
    </g>
    <defs>
      <linearGradient id="paint0_linear_1_390" x1="32.3737" y1="0.00012207" x2="32.3737" y2="62.7647" gradientUnits="userSpaceOnUse">
        <stop stop-color="white"></stop>
        <stop offset="1" stop-color="white" stop-opacity="0"></stop>
      </linearGradient>
    </defs>
  </symbol>
</svg>